<mxfile host="65bd71144e">
    <diagram id="J_Mmgk-uXdzLfrtwWO_J" name="Page-1">
        <mxGraphModel dx="973" dy="922" grid="1" gridSize="10" guides="1" tooltips="1" connect="1" arrows="1" fold="1" page="1" pageScale="1" pageWidth="827" pageHeight="1169" math="0" shadow="0">
            <root>
                <mxCell id="0"/>
                <mxCell id="1" parent="0"/>
                <mxCell id="36" value="生活者" style="rounded=1;whiteSpace=wrap;strokeColor=#666666;fontColor=#000000;fillColor=none;gradientColor=none;gradientDirection=east;verticalAlign=top;dashed=1;arcSize=50;fontSize=18;spacing=5;" vertex="1" parent="1">
                    <mxGeometry width="440" height="360" as="geometry"/>
                </mxCell>
                <mxCell id="35" value="日本人" style="rounded=1;whiteSpace=wrap;strokeColor=#666666;fontColor=#000000;fillColor=none;gradientColor=none;gradientDirection=east;verticalAlign=top;dashed=1;arcSize=50;fontSize=18;spacing=5;" vertex="1" parent="1">
                    <mxGeometry x="40" y="40" width="360" height="280" as="geometry"/>
                </mxCell>
                <mxCell id="33" value="有権者" style="rounded=1;whiteSpace=wrap;strokeColor=#666666;fontColor=#000000;fillColor=none;gradientColor=none;gradientDirection=east;verticalAlign=top;fontStyle=0;arcSize=50;fontSize=18;spacing=5;" vertex="1" parent="1">
                    <mxGeometry x="80" y="80" width="280" height="200" as="geometry"/>
                </mxCell>
                <mxCell id="44" value="" style="ellipse;whiteSpace=wrap;html=1;rounded=1;shadow=0;glass=0;labelBackgroundColor=none;labelBorderColor=none;strokeColor=none;strokeWidth=2;fontSize=18;fontColor=#000000;fillColor=#AAAAFF;gradientColor=#FFAAAA;gradientDirection=east;perimeter=ellipsePerimeter;" vertex="1" parent="1">
                    <mxGeometry x="120" y="120" width="200" height="120" as="geometry"/>
                </mxCell>
                <mxCell id="29" value="投票者" style="rounded=0;whiteSpace=wrap;strokeColor=none;fontColor=#000000;fillColor=none;gradientColor=#FF0000;gradientDirection=east;verticalAlign=top;fontStyle=1;arcSize=50;fontSize=18;spacing=5;" vertex="1" parent="1">
                    <mxGeometry x="120" y="120" width="200" height="120" as="geometry"/>
                </mxCell>
                <mxCell id="30" value="浮動層" style="text;strokeColor=none;fillColor=none;align=center;verticalAlign=middle;whiteSpace=wrap;rounded=0;fontColor=#000000;fontSize=18;" vertex="1" parent="1">
                    <mxGeometry x="190" y="163.5" width="60" height="33" as="geometry"/>
                </mxCell>
                <mxCell id="31" value="支持層" style="text;strokeColor=none;fillColor=none;align=center;verticalAlign=middle;whiteSpace=wrap;rounded=0;fontColor=#000099;fontSize=18;" vertex="1" parent="1">
                    <mxGeometry x="120" y="163.5" width="60" height="33" as="geometry"/>
                </mxCell>
                <mxCell id="32" value="反対層" style="text;strokeColor=none;fillColor=none;align=center;verticalAlign=middle;whiteSpace=wrap;rounded=0;fontColor=#990000;fontSize=18;" vertex="1" parent="1">
                    <mxGeometry x="260" y="163.5" width="60" height="33" as="geometry"/>
                </mxCell>
                <mxCell id="38" value="👉 ターゲット" style="rounded=1;strokeColor=#666666;fontColor=default;fillColor=none;gradientColor=none;gradientDirection=east;verticalAlign=middle;fontStyle=1;arcSize=50;shadow=0;glass=0;fontSize=18;strokeWidth=2;labelBorderColor=none;labelBackgroundColor=none;perimeterSpacing=0;spacing=0;labelPosition=center;verticalLabelPosition=middle;align=center;whiteSpace=wrap;" vertex="1" parent="1">
                    <mxGeometry x="150" y="200" width="140" height="60" as="geometry"/>
                </mxCell>
            </root>
        </mxGraphModel>
    </diagram>
</mxfile>